<svg width="118" height="59" viewBox="0 0 118 59" fill="none" xmlns="http://www.w3.org/2000/svg">
<path d="M35.5591 28.7853L39.4047 14.3644L58.6891 0H60.725H62.8174H67.0023H74.6369H82.4412L80.2922 7.86082L78.5956 14.3644L77.7473 17.4182L76.8425 20.9245L75.768 24.8266L74.6935 28.7853H66.8892L67.9637 24.8266L69.0382 20.9245L69.5472 18.9451L72.4879 7.86082H62.8174H60.6684H58.576L46.5868 16.8527L43.3633 28.7853H35.5591ZM53.3166 20.9245L51.1676 28.7853H59.0284L61.1774 20.9245H53.3166Z" fill="white"/>
<path d="M7.48228 43.8369C5.49539 43.8369 3.95294 45.4578 3.95294 47.4446C3.95294 49.4577 5.49539 51.0524 7.48228 51.0524C9.57373 51.0524 11.1423 49.4577 11.1423 47.4446C11.1423 45.4578 9.52145 43.8369 7.48228 43.8369ZM11.09 54.085V53.0916C10.1489 53.8236 8.68486 54.268 7.16856 54.268C3.5085 54.268 0.397461 51.3138 0.397461 47.4446C0.397461 43.5754 3.5085 40.5428 7.16856 40.5428C8.68486 40.5428 10.1489 41.0134 11.09 41.7454V40.6735H14.7239V54.085H11.09ZM32.2059 54.085H28.6243V52.7517C27.7093 53.719 26.3498 54.3203 24.729 54.3203C21.5918 54.3203 19.5526 52.1504 19.5526 48.9087V40.6735H23.1604V48.2812C23.1604 49.876 24.0754 50.974 25.644 50.974C27.3956 50.974 28.5982 49.8498 28.5982 47.9936V40.6735H32.2059V54.085ZM47.3089 49.1701L50.1323 50.974C48.8513 53.0393 46.8121 54.3987 43.8841 54.3987C39.7273 54.3987 36.7993 51.3138 36.7993 47.4185C36.7993 43.5232 39.7273 40.4121 43.8841 40.4121C46.8383 40.4121 48.9036 41.8238 50.1585 43.9153L47.3089 45.693C46.6291 44.5689 45.6618 43.7323 44.0148 43.7323C41.8972 43.7323 40.4593 45.2225 40.4593 47.4185C40.4593 49.6145 41.8972 51.1308 44.0148 51.1308C45.6618 51.1308 46.6291 50.2942 47.3089 49.1701ZM61.4445 43.8369C59.4576 43.8369 57.9152 45.4578 57.9152 47.4446C57.9152 49.4577 59.4576 51.0524 61.4445 51.0524C63.536 51.0524 65.1046 49.4577 65.1046 47.4446C65.1046 45.4578 63.4837 43.8369 61.4445 43.8369ZM65.0523 54.085V53.0916C64.1111 53.8236 62.6471 54.268 61.1308 54.268C57.4707 54.268 54.3597 51.3138 54.3597 47.4446C54.3597 43.5754 57.4707 40.5428 61.1308 40.5428C62.6471 40.5428 64.1111 41.0134 65.0523 41.7454V40.6735H68.6862V54.085H65.0523ZM77.1749 54.085H73.5148V40.6735H77.1487V42.5036C78.0376 41.2748 79.3709 40.4905 81.0441 40.4905V44.1506C78.3775 44.1506 77.1749 45.6408 77.1749 47.9675V54.085ZM91.5458 43.7323C89.6374 43.7323 88.0949 45.327 88.0949 47.2616C88.0949 49.2485 89.6374 50.791 91.5458 50.791C93.6111 50.791 95.1536 49.2485 95.1536 47.2616C95.1536 45.327 93.585 43.7323 91.5458 43.7323ZM91.5197 58.9999C88.5132 58.9999 86.4217 57.8496 85.0361 55.8628L87.6505 54.085C88.4609 55.2092 89.7419 55.9412 91.4674 55.9412C93.7157 55.9412 95.1013 55 95.1013 53.0916V52.7256C94.134 53.536 92.8007 53.9543 91.2321 53.9543C87.6505 53.9543 84.5656 51.0524 84.5656 47.2355C84.5656 43.4447 87.6505 40.4644 91.2321 40.4644C93.0098 40.4644 94.317 41.0395 95.1013 41.667V40.6735H98.7091V52.7779C98.7091 56.2288 96.147 58.9999 91.5197 58.9999ZM110.361 43.8369C108.374 43.8369 106.832 45.4578 106.832 47.4446C106.832 49.4577 108.374 51.0524 110.361 51.0524C112.453 51.0524 114.021 49.4577 114.021 47.4446C114.021 45.4578 112.4 43.8369 110.361 43.8369ZM113.969 54.085V53.0916C113.028 53.8236 111.564 54.268 110.047 54.268C106.387 54.268 103.276 51.3138 103.276 47.4446C103.276 43.5754 106.387 40.5428 110.047 40.5428C111.564 40.5428 113.028 41.0134 113.969 41.7454V40.6735H117.603V54.085H113.969Z" fill="white"/>
</svg>
