<svg width="86" height="44" viewBox="0 0 86 44" fill="none" xmlns="http://www.w3.org/2000/svg">
<path d="M25.6807 21.0237L28.4893 10.4912L42.574 0H44.0609H45.5892H48.6457H54.2217H59.9217L58.3521 5.74126L57.113 10.4912L56.4934 12.7216L55.8326 15.2825L55.0478 18.1325L54.263 21.0237H48.5631L49.3479 18.1325L50.1326 15.2825L50.5044 13.8368L52.6522 5.74126H45.5892H44.0196H42.4914L33.7349 12.3086L31.3806 21.0237H25.6807ZM38.6501 15.2825L37.0806 21.0237H42.8218L44.3914 15.2825H38.6501Z" fill="#003366"/>
<path d="M5.17449 32.0169C3.72334 32.0169 2.59679 33.2007 2.59679 34.6519C2.59679 36.1221 3.72334 37.2869 5.17449 37.2869C6.70202 37.2869 7.84766 36.1221 7.84766 34.6519C7.84766 33.2007 6.66383 32.0169 5.17449 32.0169ZM7.80947 39.5018V38.7762C7.12209 39.3108 6.05282 39.6354 4.94536 39.6354C2.27219 39.6354 0 37.4778 0 34.6519C0 31.8259 2.27219 29.611 4.94536 29.611C6.05282 29.611 7.12209 29.9547 7.80947 30.4894V29.7065H10.4636V39.5018H7.80947ZM23.2318 39.5018H20.6159V38.528C19.9476 39.2344 18.9547 39.6736 17.7709 39.6736C15.4796 39.6736 13.9902 38.0888 13.9902 35.7211V29.7065H16.6252V35.2629C16.6252 36.4276 17.2935 37.2296 18.4391 37.2296C19.7184 37.2296 20.5968 36.4085 20.5968 35.0528V29.7065H23.2318V39.5018ZM34.2624 35.9121L36.3246 37.2296C35.389 38.738 33.8996 39.7309 31.7611 39.7309C28.7251 39.7309 26.5866 37.4778 26.5866 34.6328C26.5866 31.7878 28.7251 29.5156 31.7611 29.5156C33.9187 29.5156 35.4271 30.5466 36.3437 32.0742L34.2624 33.3726C33.766 32.5515 33.0595 31.9405 31.8565 31.9405C30.3099 31.9405 29.2598 33.0289 29.2598 34.6328C29.2598 36.2367 30.3099 37.3441 31.8565 37.3441C33.0595 37.3441 33.766 36.7331 34.2624 35.9121ZM44.5866 32.0169C43.1354 32.0169 42.0089 33.2007 42.0089 34.6519C42.0089 36.1221 43.1354 37.2869 44.5866 37.2869C46.1141 37.2869 47.2597 36.1221 47.2597 34.6519C47.2597 33.2007 46.0759 32.0169 44.5866 32.0169ZM47.2215 39.5018V38.7762C46.5342 39.3108 45.4649 39.6354 44.3574 39.6354C41.6843 39.6354 39.4121 37.4778 39.4121 34.6519C39.4121 31.8259 41.6843 29.611 44.3574 29.611C45.4649 29.611 46.5342 29.9547 47.2215 30.4894V29.7065H49.8756V39.5018H47.2215ZM56.0755 39.5018H53.4023V29.7065H56.0564V31.0431C56.7056 30.1457 57.6794 29.5728 58.9014 29.5728V32.246C56.9538 32.246 56.0755 33.3344 56.0755 35.0338V39.5018ZM66.5715 31.9405C65.1776 31.9405 64.0511 33.1052 64.0511 34.5182C64.0511 35.9694 65.1776 37.0959 66.5715 37.0959C68.0799 37.0959 69.2065 35.9694 69.2065 34.5182C69.2065 33.1052 68.0608 31.9405 66.5715 31.9405ZM66.5524 43.0914C64.3566 43.0914 62.829 42.2513 61.8171 40.8002L63.7265 39.5018C64.3184 40.3228 65.254 40.8574 66.5142 40.8574C68.1563 40.8574 69.1683 40.1701 69.1683 38.7762V38.5089C68.4618 39.1008 67.488 39.4063 66.3424 39.4063C63.7265 39.4063 61.4734 37.2869 61.4734 34.4991C61.4734 31.7305 63.7265 29.5538 66.3424 29.5538C67.6407 29.5538 68.5955 29.9738 69.1683 30.4321V29.7065H71.8033V38.5471C71.8033 41.0675 69.932 43.0914 66.5524 43.0914ZM80.3135 32.0169C78.8623 32.0169 77.7358 33.2007 77.7358 34.6519C77.7358 36.1221 78.8623 37.2869 80.3135 37.2869C81.841 37.2869 82.9866 36.1221 82.9866 34.6519C82.9866 33.2007 81.8028 32.0169 80.3135 32.0169ZM82.9485 39.5018V38.7762C82.2611 39.3108 81.1918 39.6354 80.0844 39.6354C77.4112 39.6354 75.139 37.4778 75.139 34.6519C75.139 31.8259 77.4112 29.611 80.0844 29.611C81.1918 29.611 82.2611 29.9547 82.9485 30.4894V29.7065H85.6025V39.5018H82.9485Z" fill="#003366"/>
</svg>
