<svg width="99" height="84" viewBox="0 0 99 84" fill="none" xmlns="http://www.w3.org/2000/svg">
<path d="M79.65 41.725C79.65 64.7706 68.9427 83.4518 55.7338 83.4518C55.277 83.4518 54.8238 83.4286 54.3724 83.384H41.1777V0.0374701H54.7149C55.0522 0.0124904 55.393 0 55.732 0C68.9409 0 79.6482 18.683 79.6482 41.7268L79.65 41.725Z" fill="#0E803E"/>
<mask id="mask0_114_3809" style="mask-type:luminance" maskUnits="userSpaceOnUse" x="31" y="0" width="49" height="84">
<path d="M55.7338 83.4545C68.9414 83.4545 79.6483 64.7728 79.6483 41.7277C79.6483 18.6826 68.9414 0.000915527 55.7338 0.000915527C42.5262 0.000915527 31.8193 18.6826 31.8193 41.7277C31.8193 64.7728 42.5262 83.4545 55.7338 83.4545Z" fill="white"/>
</mask>
<g mask="url(#mask0_114_3809)">
<path d="M46.4165 6.13483H71.0376" stroke="#06361A" stroke-width="1.78426" stroke-miterlimit="10"/>
<path d="M55.6855 17.0637H80.3066" stroke="#06361A" stroke-width="1.78426" stroke-miterlimit="10"/>
<path d="M59.8325 32.1423H84.4518" stroke="#06361A" stroke-width="1.78426" stroke-miterlimit="10"/>
<path d="M60.562 49.2712H85.1813" stroke="#06361A" stroke-width="1.78426" stroke-miterlimit="10"/>
<path d="M56.8208 65.8489H81.4401" stroke="#06361A" stroke-width="1.78426" stroke-miterlimit="10"/>
<path d="M49.1196 78.5027H73.7407" stroke="#06361A" stroke-width="1.78426" stroke-miterlimit="10"/>
</g>
<path d="M42.566 83.4536C56.2486 83.4536 67.3405 64.7719 67.3405 41.7268C67.3405 18.6817 56.2486 0 42.566 0C28.8834 0 17.7915 18.6817 17.7915 41.7268C17.7915 64.7719 28.8834 83.4536 42.566 83.4536Z" fill="#5EAA7E"/>
<path d="M42.1165 75.7901C52.5807 75.7901 61.0636 60.5713 61.0636 41.798C61.0636 23.0248 52.5807 7.80603 42.1165 7.80603C31.6523 7.80603 23.1694 23.0248 23.1694 41.798C23.1694 60.5713 31.6523 75.7901 42.1165 75.7901Z" fill="#FCFCFD"/>
<path d="M32.4082 41.4484L38.9654 54.8518C39.4792 55.8759 40.9923 55.6939 41.251 54.5788L47.537 27.342" stroke="#0A5B2C" stroke-width="4.10381" stroke-miterlimit="10"/>
<path d="M52.9038 53.5119C112.236 54.8608 100.508 36.7434 85.5469 36.7434" stroke="#E7F2EC" stroke-width="2.49797" stroke-miterlimit="10"/>
<path d="M11.9016 49.4831C-0.547205 51.1692 -8.44257 63.213 26.4755 61.3823" stroke="#E7F2EC" stroke-width="2.14112" stroke-miterlimit="10"/>
<path d="M86.9245 40.3638C88.9239 40.3638 90.5447 38.743 90.5447 36.7436C90.5447 34.7441 88.9239 33.1233 86.9245 33.1233C84.9251 33.1233 83.3042 34.7441 83.3042 36.7436C83.3042 38.743 84.9251 40.3638 86.9245 40.3638Z" fill="#5EAA7E"/>
</svg>
